<mxfile host="app.diagrams.net" agent="Mozilla/5.0 (Windows NT 10.0; Win64; x64) AppleWebKit/537.36 (KHTML, like Gecko) Chrome/131.0.0.0 Safari/537.36 OPR/116.0.0.0 (Edition std-2)" version="26.0.16">
  <diagram id="C5RBs43oDa-KdzZeNtuy" name="Page-1">
    <mxGraphModel dx="787" dy="2061" grid="1" gridSize="10" guides="1" tooltips="1" connect="1" arrows="1" fold="1" page="1" pageScale="1" pageWidth="827" pageHeight="1169" background="none" math="0" shadow="0">
      <root>
        <mxCell id="WIyWlLk6GJQsqaUBKTNV-0" />
        <mxCell id="WIyWlLk6GJQsqaUBKTNV-1" parent="WIyWlLk6GJQsqaUBKTNV-0" />
        <mxCell id="PziAaPusPcvrR4FesFro-0" value="&amp;lt;&amp;lt;Abstract&amp;gt;&amp;gt;&lt;div&gt;Instrument&lt;/div&gt;" style="swimlane;fontStyle=0;childLayout=stackLayout;horizontal=1;startSize=26;fillColor=none;horizontalStack=0;resizeParent=1;resizeParentMax=0;resizeLast=0;collapsible=1;marginBottom=0;whiteSpace=wrap;html=1;" parent="WIyWlLk6GJQsqaUBKTNV-1" vertex="1">
          <mxGeometry x="630" y="-70" width="330" height="180" as="geometry" />
        </mxCell>
        <mxCell id="PziAaPusPcvrR4FesFro-1" value="- id : UUID" style="text;strokeColor=none;fillColor=none;align=left;verticalAlign=top;spacingLeft=4;spacingRight=4;overflow=hidden;rotatable=0;points=[[0,0.5],[1,0.5]];portConstraint=eastwest;whiteSpace=wrap;html=1;" parent="PziAaPusPcvrR4FesFro-0" vertex="1">
          <mxGeometry y="26" width="330" height="26" as="geometry" />
        </mxCell>
        <mxCell id="PziAaPusPcvrR4FesFro-2" value="- name : String" style="text;strokeColor=none;fillColor=none;align=left;verticalAlign=top;spacingLeft=4;spacingRight=4;overflow=hidden;rotatable=0;points=[[0,0.5],[1,0.5]];portConstraint=eastwest;whiteSpace=wrap;html=1;" parent="PziAaPusPcvrR4FesFro-0" vertex="1">
          <mxGeometry y="52" width="330" height="26" as="geometry" />
        </mxCell>
        <mxCell id="PziAaPusPcvrR4FesFro-3" value="- brand : String" style="text;strokeColor=none;fillColor=none;align=left;verticalAlign=top;spacingLeft=4;spacingRight=4;overflow=hidden;rotatable=0;points=[[0,0.5],[1,0.5]];portConstraint=eastwest;whiteSpace=wrap;html=1;" parent="PziAaPusPcvrR4FesFro-0" vertex="1">
          <mxGeometry y="78" width="330" height="26" as="geometry" />
        </mxCell>
        <mxCell id="PziAaPusPcvrR4FesFro-5" value="- instrumentType : InstrumentType" style="text;strokeColor=none;fillColor=none;align=left;verticalAlign=top;spacingLeft=4;spacingRight=4;overflow=hidden;rotatable=0;points=[[0,0.5],[1,0.5]];portConstraint=eastwest;whiteSpace=wrap;html=1;" parent="PziAaPusPcvrR4FesFro-0" vertex="1">
          <mxGeometry y="104" width="330" height="26" as="geometry" />
        </mxCell>
        <mxCell id="laYVWlQpi4HF2ZQRzk9d-9" value="" style="line;strokeWidth=1;fillColor=none;align=left;verticalAlign=middle;spacingTop=-1;spacingLeft=3;spacingRight=3;rotatable=0;labelPosition=right;points=[];portConstraint=eastwest;strokeColor=inherit;" vertex="1" parent="PziAaPusPcvrR4FesFro-0">
          <mxGeometry y="130" width="330" height="8" as="geometry" />
        </mxCell>
        <mxCell id="laYVWlQpi4HF2ZQRzk9d-10" value="+&amp;lt;&amp;lt;final&amp;gt;&amp;gt;&amp;nbsp;&lt;u&gt;fromInstrumentType&lt;/u&gt;(type : InstrumentType) : Instrument" style="text;strokeColor=none;fillColor=none;align=left;verticalAlign=top;spacingLeft=4;spacingRight=4;overflow=hidden;rotatable=0;points=[[0,0.5],[1,0.5]];portConstraint=eastwest;whiteSpace=wrap;html=1;" vertex="1" parent="PziAaPusPcvrR4FesFro-0">
          <mxGeometry y="138" width="330" height="42" as="geometry" />
        </mxCell>
        <mxCell id="laYVWlQpi4HF2ZQRzk9d-13" value="&amp;lt;&amp;lt;Enum&amp;gt;&amp;gt;&lt;div&gt;InstrumentType&lt;/div&gt;" style="swimlane;fontStyle=0;childLayout=stackLayout;horizontal=1;startSize=26;fillColor=none;horizontalStack=0;resizeParent=1;resizeParentMax=0;resizeLast=0;collapsible=1;marginBottom=0;whiteSpace=wrap;html=1;" vertex="1" parent="WIyWlLk6GJQsqaUBKTNV-1">
          <mxGeometry x="274" y="110" width="166" height="182" as="geometry" />
        </mxCell>
        <mxCell id="laYVWlQpi4HF2ZQRzk9d-14" value="STRINGS" style="text;strokeColor=none;fillColor=none;align=left;verticalAlign=top;spacingLeft=4;spacingRight=4;overflow=hidden;rotatable=0;points=[[0,0.5],[1,0.5]];portConstraint=eastwest;whiteSpace=wrap;html=1;" vertex="1" parent="laYVWlQpi4HF2ZQRzk9d-13">
          <mxGeometry y="26" width="166" height="26" as="geometry" />
        </mxCell>
        <mxCell id="laYVWlQpi4HF2ZQRzk9d-16" value="WOODWIND" style="text;strokeColor=none;fillColor=none;align=left;verticalAlign=top;spacingLeft=4;spacingRight=4;overflow=hidden;rotatable=0;points=[[0,0.5],[1,0.5]];portConstraint=eastwest;whiteSpace=wrap;html=1;" vertex="1" parent="laYVWlQpi4HF2ZQRzk9d-13">
          <mxGeometry y="52" width="166" height="26" as="geometry" />
        </mxCell>
        <mxCell id="laYVWlQpi4HF2ZQRzk9d-17" value="BRASS" style="text;strokeColor=none;fillColor=none;align=left;verticalAlign=top;spacingLeft=4;spacingRight=4;overflow=hidden;rotatable=0;points=[[0,0.5],[1,0.5]];portConstraint=eastwest;whiteSpace=wrap;html=1;" vertex="1" parent="laYVWlQpi4HF2ZQRzk9d-13">
          <mxGeometry y="78" width="166" height="26" as="geometry" />
        </mxCell>
        <mxCell id="laYVWlQpi4HF2ZQRzk9d-18" value="PERCUSSION" style="text;strokeColor=none;fillColor=none;align=left;verticalAlign=top;spacingLeft=4;spacingRight=4;overflow=hidden;rotatable=0;points=[[0,0.5],[1,0.5]];portConstraint=eastwest;whiteSpace=wrap;html=1;" vertex="1" parent="laYVWlQpi4HF2ZQRzk9d-13">
          <mxGeometry y="104" width="166" height="26" as="geometry" />
        </mxCell>
        <mxCell id="laYVWlQpi4HF2ZQRzk9d-19" value="ELECTRONIC" style="text;strokeColor=none;fillColor=none;align=left;verticalAlign=top;spacingLeft=4;spacingRight=4;overflow=hidden;rotatable=0;points=[[0,0.5],[1,0.5]];portConstraint=eastwest;whiteSpace=wrap;html=1;" vertex="1" parent="laYVWlQpi4HF2ZQRzk9d-13">
          <mxGeometry y="130" width="166" height="26" as="geometry" />
        </mxCell>
        <mxCell id="laYVWlQpi4HF2ZQRzk9d-20" value="KEYS" style="text;strokeColor=none;fillColor=none;align=left;verticalAlign=top;spacingLeft=4;spacingRight=4;overflow=hidden;rotatable=0;points=[[0,0.5],[1,0.5]];portConstraint=eastwest;whiteSpace=wrap;html=1;" vertex="1" parent="laYVWlQpi4HF2ZQRzk9d-13">
          <mxGeometry y="156" width="166" height="26" as="geometry" />
        </mxCell>
        <mxCell id="laYVWlQpi4HF2ZQRzk9d-25" style="edgeStyle=orthogonalEdgeStyle;rounded=0;orthogonalLoop=1;jettySize=auto;html=1;entryX=1;entryY=0.5;entryDx=0;entryDy=0;" edge="1" parent="WIyWlLk6GJQsqaUBKTNV-1" source="PziAaPusPcvrR4FesFro-5" target="laYVWlQpi4HF2ZQRzk9d-16">
          <mxGeometry relative="1" as="geometry" />
        </mxCell>
        <mxCell id="laYVWlQpi4HF2ZQRzk9d-26" value="StringInstrument" style="swimlane;fontStyle=0;childLayout=stackLayout;horizontal=1;startSize=30;fillColor=none;horizontalStack=0;resizeParent=1;resizeParentMax=0;resizeLast=0;collapsible=1;marginBottom=0;whiteSpace=wrap;html=1;" vertex="1" parent="WIyWlLk6GJQsqaUBKTNV-1">
          <mxGeometry x="450" y="430" width="180" height="108" as="geometry" />
        </mxCell>
        <mxCell id="laYVWlQpi4HF2ZQRzk9d-27" value="- numberOfStrings : Integer" style="text;strokeColor=none;fillColor=none;align=left;verticalAlign=top;spacingLeft=4;spacingRight=4;overflow=hidden;rotatable=0;points=[[0,0.5],[1,0.5]];portConstraint=eastwest;whiteSpace=wrap;html=1;" vertex="1" parent="laYVWlQpi4HF2ZQRzk9d-26">
          <mxGeometry y="30" width="180" height="26" as="geometry" />
        </mxCell>
        <mxCell id="laYVWlQpi4HF2ZQRzk9d-28" value="- wood : String" style="text;strokeColor=none;fillColor=none;align=left;verticalAlign=top;spacingLeft=4;spacingRight=4;overflow=hidden;rotatable=0;points=[[0,0.5],[1,0.5]];portConstraint=eastwest;whiteSpace=wrap;html=1;" vertex="1" parent="laYVWlQpi4HF2ZQRzk9d-26">
          <mxGeometry y="56" width="180" height="26" as="geometry" />
        </mxCell>
        <mxCell id="laYVWlQpi4HF2ZQRzk9d-37" value="- stringMaterial: StringMaterial" style="text;strokeColor=none;fillColor=none;align=left;verticalAlign=top;spacingLeft=4;spacingRight=4;overflow=hidden;rotatable=0;points=[[0,0.5],[1,0.5]];portConstraint=eastwest;whiteSpace=wrap;html=1;" vertex="1" parent="laYVWlQpi4HF2ZQRzk9d-26">
          <mxGeometry y="82" width="180" height="26" as="geometry" />
        </mxCell>
        <mxCell id="laYVWlQpi4HF2ZQRzk9d-31" value="Extends" style="endArrow=block;endSize=16;endFill=0;html=1;rounded=0;exitX=0.5;exitY=0;exitDx=0;exitDy=0;entryX=0.186;entryY=1.087;entryDx=0;entryDy=0;entryPerimeter=0;" edge="1" parent="WIyWlLk6GJQsqaUBKTNV-1" source="laYVWlQpi4HF2ZQRzk9d-26" target="laYVWlQpi4HF2ZQRzk9d-10">
          <mxGeometry width="160" relative="1" as="geometry">
            <mxPoint x="527.94" y="477.62000000000006" as="sourcePoint" />
            <mxPoint x="680" y="210" as="targetPoint" />
            <Array as="points">
              <mxPoint x="540" y="310" />
              <mxPoint x="690" y="310" />
            </Array>
          </mxGeometry>
        </mxCell>
        <mxCell id="laYVWlQpi4HF2ZQRzk9d-32" value="Guitar" style="swimlane;fontStyle=0;childLayout=stackLayout;horizontal=1;startSize=26;fillColor=none;horizontalStack=0;resizeParent=1;resizeParentMax=0;resizeLast=0;collapsible=1;marginBottom=0;whiteSpace=wrap;html=1;" vertex="1" parent="WIyWlLk6GJQsqaUBKTNV-1">
          <mxGeometry x="450" y="700" width="180" height="208" as="geometry" />
        </mxCell>
        <mxCell id="laYVWlQpi4HF2ZQRzk9d-33" value="- guitarType : GuitarType" style="text;strokeColor=none;fillColor=none;align=left;verticalAlign=top;spacingLeft=4;spacingRight=4;overflow=hidden;rotatable=0;points=[[0,0.5],[1,0.5]];portConstraint=eastwest;whiteSpace=wrap;html=1;" vertex="1" parent="laYVWlQpi4HF2ZQRzk9d-32">
          <mxGeometry y="26" width="180" height="26" as="geometry" />
        </mxCell>
        <mxCell id="laYVWlQpi4HF2ZQRzk9d-34" value="- neckWood : String" style="text;strokeColor=none;fillColor=none;align=left;verticalAlign=top;spacingLeft=4;spacingRight=4;overflow=hidden;rotatable=0;points=[[0,0.5],[1,0.5]];portConstraint=eastwest;whiteSpace=wrap;html=1;" vertex="1" parent="laYVWlQpi4HF2ZQRzk9d-32">
          <mxGeometry y="52" width="180" height="26" as="geometry" />
        </mxCell>
        <mxCell id="laYVWlQpi4HF2ZQRzk9d-35" value="- numberOfFrets : Integer" style="text;strokeColor=none;fillColor=none;align=left;verticalAlign=top;spacingLeft=4;spacingRight=4;overflow=hidden;rotatable=0;points=[[0,0.5],[1,0.5]];portConstraint=eastwest;whiteSpace=wrap;html=1;" vertex="1" parent="laYVWlQpi4HF2ZQRzk9d-32">
          <mxGeometry y="78" width="180" height="26" as="geometry" />
        </mxCell>
        <mxCell id="laYVWlQpi4HF2ZQRzk9d-38" value="- hasWhammyBar : Boolean" style="text;strokeColor=none;fillColor=none;align=left;verticalAlign=top;spacingLeft=4;spacingRight=4;overflow=hidden;rotatable=0;points=[[0,0.5],[1,0.5]];portConstraint=eastwest;whiteSpace=wrap;html=1;" vertex="1" parent="laYVWlQpi4HF2ZQRzk9d-32">
          <mxGeometry y="104" width="180" height="26" as="geometry" />
        </mxCell>
        <mxCell id="laYVWlQpi4HF2ZQRzk9d-39" value="- hasBuiltInTuner : Boolean" style="text;strokeColor=none;fillColor=none;align=left;verticalAlign=top;spacingLeft=4;spacingRight=4;overflow=hidden;rotatable=0;points=[[0,0.5],[1,0.5]];portConstraint=eastwest;whiteSpace=wrap;html=1;" vertex="1" parent="laYVWlQpi4HF2ZQRzk9d-32">
          <mxGeometry y="130" width="180" height="26" as="geometry" />
        </mxCell>
        <mxCell id="laYVWlQpi4HF2ZQRzk9d-40" value="- pickups : String" style="text;strokeColor=none;fillColor=none;align=left;verticalAlign=top;spacingLeft=4;spacingRight=4;overflow=hidden;rotatable=0;points=[[0,0.5],[1,0.5]];portConstraint=eastwest;whiteSpace=wrap;html=1;" vertex="1" parent="laYVWlQpi4HF2ZQRzk9d-32">
          <mxGeometry y="156" width="180" height="26" as="geometry" />
        </mxCell>
        <mxCell id="laYVWlQpi4HF2ZQRzk9d-41" value="- bodyShape : String" style="text;strokeColor=none;fillColor=none;align=left;verticalAlign=top;spacingLeft=4;spacingRight=4;overflow=hidden;rotatable=0;points=[[0,0.5],[1,0.5]];portConstraint=eastwest;whiteSpace=wrap;html=1;" vertex="1" parent="laYVWlQpi4HF2ZQRzk9d-32">
          <mxGeometry y="182" width="180" height="26" as="geometry" />
        </mxCell>
        <mxCell id="laYVWlQpi4HF2ZQRzk9d-36" value="Extends" style="endArrow=block;endSize=16;endFill=0;html=1;rounded=0;exitX=0.5;exitY=0;exitDx=0;exitDy=0;entryX=0.5;entryY=1.079;entryDx=0;entryDy=0;entryPerimeter=0;" edge="1" parent="WIyWlLk6GJQsqaUBKTNV-1" source="laYVWlQpi4HF2ZQRzk9d-32" target="laYVWlQpi4HF2ZQRzk9d-37">
          <mxGeometry x="-0.4154" y="-33" width="160" relative="1" as="geometry">
            <mxPoint x="550" y="620" as="sourcePoint" />
            <mxPoint x="550" y="670" as="targetPoint" />
            <mxPoint x="1" as="offset" />
          </mxGeometry>
        </mxCell>
        <mxCell id="laYVWlQpi4HF2ZQRzk9d-42" value="&amp;lt;&amp;lt;Enum&amp;gt;&amp;gt;&lt;div&gt;GuitarType&lt;/div&gt;" style="swimlane;fontStyle=0;childLayout=stackLayout;horizontal=1;startSize=40;fillColor=none;horizontalStack=0;resizeParent=1;resizeParentMax=0;resizeLast=0;collapsible=1;marginBottom=0;whiteSpace=wrap;html=1;" vertex="1" parent="WIyWlLk6GJQsqaUBKTNV-1">
          <mxGeometry x="180" y="700" width="140" height="144" as="geometry">
            <mxRectangle x="180" y="700" width="100" height="40" as="alternateBounds" />
          </mxGeometry>
        </mxCell>
        <mxCell id="laYVWlQpi4HF2ZQRzk9d-43" value="ELECTRIC" style="text;strokeColor=none;fillColor=none;align=left;verticalAlign=top;spacingLeft=4;spacingRight=4;overflow=hidden;rotatable=0;points=[[0,0.5],[1,0.5]];portConstraint=eastwest;whiteSpace=wrap;html=1;" vertex="1" parent="laYVWlQpi4HF2ZQRzk9d-42">
          <mxGeometry y="40" width="140" height="26" as="geometry" />
        </mxCell>
        <mxCell id="laYVWlQpi4HF2ZQRzk9d-44" value="ACOUSTIC" style="text;strokeColor=none;fillColor=none;align=left;verticalAlign=top;spacingLeft=4;spacingRight=4;overflow=hidden;rotatable=0;points=[[0,0.5],[1,0.5]];portConstraint=eastwest;whiteSpace=wrap;html=1;" vertex="1" parent="laYVWlQpi4HF2ZQRzk9d-42">
          <mxGeometry y="66" width="140" height="26" as="geometry" />
        </mxCell>
        <mxCell id="laYVWlQpi4HF2ZQRzk9d-45" value="CLASSICAL" style="text;strokeColor=none;fillColor=none;align=left;verticalAlign=top;spacingLeft=4;spacingRight=4;overflow=hidden;rotatable=0;points=[[0,0.5],[1,0.5]];portConstraint=eastwest;whiteSpace=wrap;html=1;" vertex="1" parent="laYVWlQpi4HF2ZQRzk9d-42">
          <mxGeometry y="92" width="140" height="26" as="geometry" />
        </mxCell>
        <mxCell id="laYVWlQpi4HF2ZQRzk9d-46" value="BASS" style="text;strokeColor=none;fillColor=none;align=left;verticalAlign=top;spacingLeft=4;spacingRight=4;overflow=hidden;rotatable=0;points=[[0,0.5],[1,0.5]];portConstraint=eastwest;whiteSpace=wrap;html=1;" vertex="1" parent="laYVWlQpi4HF2ZQRzk9d-42">
          <mxGeometry y="118" width="140" height="26" as="geometry" />
        </mxCell>
        <mxCell id="laYVWlQpi4HF2ZQRzk9d-49" style="edgeStyle=orthogonalEdgeStyle;rounded=0;orthogonalLoop=1;jettySize=auto;html=1;entryX=1.028;entryY=0.117;entryDx=0;entryDy=0;entryPerimeter=0;" edge="1" parent="WIyWlLk6GJQsqaUBKTNV-1" source="laYVWlQpi4HF2ZQRzk9d-33" target="laYVWlQpi4HF2ZQRzk9d-42">
          <mxGeometry relative="1" as="geometry" />
        </mxCell>
        <mxCell id="laYVWlQpi4HF2ZQRzk9d-50" value="&amp;lt;&amp;lt;Enum&amp;gt;&amp;gt;&lt;div&gt;StringMaterial&lt;/div&gt;" style="swimlane;fontStyle=0;childLayout=stackLayout;horizontal=1;startSize=40;fillColor=none;horizontalStack=0;resizeParent=1;resizeParentMax=0;resizeLast=0;collapsible=1;marginBottom=0;whiteSpace=wrap;html=1;" vertex="1" parent="WIyWlLk6GJQsqaUBKTNV-1">
          <mxGeometry x="180" y="430" width="140" height="92" as="geometry" />
        </mxCell>
        <mxCell id="laYVWlQpi4HF2ZQRzk9d-51" value="NYLON" style="text;strokeColor=none;fillColor=none;align=left;verticalAlign=top;spacingLeft=4;spacingRight=4;overflow=hidden;rotatable=0;points=[[0,0.5],[1,0.5]];portConstraint=eastwest;whiteSpace=wrap;html=1;" vertex="1" parent="laYVWlQpi4HF2ZQRzk9d-50">
          <mxGeometry y="40" width="140" height="26" as="geometry" />
        </mxCell>
        <mxCell id="laYVWlQpi4HF2ZQRzk9d-52" value="STEEL" style="text;strokeColor=none;fillColor=none;align=left;verticalAlign=top;spacingLeft=4;spacingRight=4;overflow=hidden;rotatable=0;points=[[0,0.5],[1,0.5]];portConstraint=eastwest;whiteSpace=wrap;html=1;" vertex="1" parent="laYVWlQpi4HF2ZQRzk9d-50">
          <mxGeometry y="66" width="140" height="26" as="geometry" />
        </mxCell>
        <mxCell id="laYVWlQpi4HF2ZQRzk9d-54" style="edgeStyle=orthogonalEdgeStyle;rounded=0;orthogonalLoop=1;jettySize=auto;html=1;entryX=1;entryY=0.25;entryDx=0;entryDy=0;" edge="1" parent="WIyWlLk6GJQsqaUBKTNV-1" source="laYVWlQpi4HF2ZQRzk9d-37" target="laYVWlQpi4HF2ZQRzk9d-50">
          <mxGeometry relative="1" as="geometry" />
        </mxCell>
        <mxCell id="laYVWlQpi4HF2ZQRzk9d-55" value="KeyInstrument" style="swimlane;fontStyle=0;childLayout=stackLayout;horizontal=1;startSize=26;fillColor=none;horizontalStack=0;resizeParent=1;resizeParentMax=0;resizeLast=0;collapsible=1;marginBottom=0;whiteSpace=wrap;html=1;" vertex="1" parent="WIyWlLk6GJQsqaUBKTNV-1">
          <mxGeometry x="687" y="430" width="173" height="182" as="geometry" />
        </mxCell>
        <mxCell id="laYVWlQpi4HF2ZQRzk9d-56" value="- numberOfKeys : Integer" style="text;strokeColor=none;fillColor=none;align=left;verticalAlign=top;spacingLeft=4;spacingRight=4;overflow=hidden;rotatable=0;points=[[0,0.5],[1,0.5]];portConstraint=eastwest;whiteSpace=wrap;html=1;" vertex="1" parent="laYVWlQpi4HF2ZQRzk9d-55">
          <mxGeometry y="26" width="173" height="26" as="geometry" />
        </mxCell>
        <mxCell id="laYVWlQpi4HF2ZQRzk9d-57" value="- pianoType : PianoType" style="text;strokeColor=none;fillColor=none;align=left;verticalAlign=top;spacingLeft=4;spacingRight=4;overflow=hidden;rotatable=0;points=[[0,0.5],[1,0.5]];portConstraint=eastwest;whiteSpace=wrap;html=1;" vertex="1" parent="laYVWlQpi4HF2ZQRzk9d-55">
          <mxGeometry y="52" width="173" height="26" as="geometry" />
        </mxCell>
        <mxCell id="laYVWlQpi4HF2ZQRzk9d-59" value="- octaves : Integer" style="text;strokeColor=none;fillColor=none;align=left;verticalAlign=top;spacingLeft=4;spacingRight=4;overflow=hidden;rotatable=0;points=[[0,0.5],[1,0.5]];portConstraint=eastwest;whiteSpace=wrap;html=1;" vertex="1" parent="laYVWlQpi4HF2ZQRzk9d-55">
          <mxGeometry y="78" width="173" height="26" as="geometry" />
        </mxCell>
        <mxCell id="laYVWlQpi4HF2ZQRzk9d-105" value="- tuningSystem : String" style="text;strokeColor=none;fillColor=none;align=left;verticalAlign=top;spacingLeft=4;spacingRight=4;overflow=hidden;rotatable=0;points=[[0,0.5],[1,0.5]];portConstraint=eastwest;whiteSpace=wrap;html=1;" vertex="1" parent="laYVWlQpi4HF2ZQRzk9d-55">
          <mxGeometry y="104" width="173" height="26" as="geometry" />
        </mxCell>
        <mxCell id="laYVWlQpi4HF2ZQRzk9d-106" value="- hasPedalSupport : Boolean" style="text;strokeColor=none;fillColor=none;align=left;verticalAlign=top;spacingLeft=4;spacingRight=4;overflow=hidden;rotatable=0;points=[[0,0.5],[1,0.5]];portConstraint=eastwest;whiteSpace=wrap;html=1;" vertex="1" parent="laYVWlQpi4HF2ZQRzk9d-55">
          <mxGeometry y="130" width="173" height="26" as="geometry" />
        </mxCell>
        <mxCell id="laYVWlQpi4HF2ZQRzk9d-107" value="- isHammerAction : Boolean" style="text;strokeColor=none;fillColor=none;align=left;verticalAlign=top;spacingLeft=4;spacingRight=4;overflow=hidden;rotatable=0;points=[[0,0.5],[1,0.5]];portConstraint=eastwest;whiteSpace=wrap;html=1;" vertex="1" parent="laYVWlQpi4HF2ZQRzk9d-55">
          <mxGeometry y="156" width="173" height="26" as="geometry" />
        </mxCell>
        <mxCell id="laYVWlQpi4HF2ZQRzk9d-71" value="Extends" style="endArrow=block;endSize=16;endFill=0;html=1;rounded=0;entryX=0.439;entryY=1.096;entryDx=0;entryDy=0;entryPerimeter=0;" edge="1" parent="WIyWlLk6GJQsqaUBKTNV-1" source="laYVWlQpi4HF2ZQRzk9d-55" target="laYVWlQpi4HF2ZQRzk9d-10">
          <mxGeometry width="160" relative="1" as="geometry">
            <mxPoint x="830" y="390" as="sourcePoint" />
            <mxPoint x="990" y="390" as="targetPoint" />
          </mxGeometry>
        </mxCell>
        <mxCell id="laYVWlQpi4HF2ZQRzk9d-72" value="&amp;lt;&amp;lt;Enum&amp;gt;&amp;gt;&lt;div&gt;PianoType&lt;/div&gt;" style="swimlane;fontStyle=0;childLayout=stackLayout;horizontal=1;startSize=40;fillColor=none;horizontalStack=0;resizeParent=1;resizeParentMax=0;resizeLast=0;collapsible=1;marginBottom=0;whiteSpace=wrap;html=1;" vertex="1" parent="WIyWlLk6GJQsqaUBKTNV-1">
          <mxGeometry x="680" y="630" width="140" height="118" as="geometry" />
        </mxCell>
        <mxCell id="laYVWlQpi4HF2ZQRzk9d-73" value="ACOUSTIC" style="text;strokeColor=none;fillColor=none;align=left;verticalAlign=top;spacingLeft=4;spacingRight=4;overflow=hidden;rotatable=0;points=[[0,0.5],[1,0.5]];portConstraint=eastwest;whiteSpace=wrap;html=1;" vertex="1" parent="laYVWlQpi4HF2ZQRzk9d-72">
          <mxGeometry y="40" width="140" height="26" as="geometry" />
        </mxCell>
        <mxCell id="laYVWlQpi4HF2ZQRzk9d-75" value="ELECTRIC" style="text;strokeColor=none;fillColor=none;align=left;verticalAlign=top;spacingLeft=4;spacingRight=4;overflow=hidden;rotatable=0;points=[[0,0.5],[1,0.5]];portConstraint=eastwest;whiteSpace=wrap;html=1;" vertex="1" parent="laYVWlQpi4HF2ZQRzk9d-72">
          <mxGeometry y="66" width="140" height="26" as="geometry" />
        </mxCell>
        <mxCell id="laYVWlQpi4HF2ZQRzk9d-74" value="DIGITAL" style="text;strokeColor=none;fillColor=none;align=left;verticalAlign=top;spacingLeft=4;spacingRight=4;overflow=hidden;rotatable=0;points=[[0,0.5],[1,0.5]];portConstraint=eastwest;whiteSpace=wrap;html=1;" vertex="1" parent="laYVWlQpi4HF2ZQRzk9d-72">
          <mxGeometry y="92" width="140" height="26" as="geometry" />
        </mxCell>
        <mxCell id="laYVWlQpi4HF2ZQRzk9d-77" style="edgeStyle=elbowEdgeStyle;rounded=0;orthogonalLoop=1;jettySize=auto;html=1;" edge="1" parent="WIyWlLk6GJQsqaUBKTNV-1" source="laYVWlQpi4HF2ZQRzk9d-56" target="laYVWlQpi4HF2ZQRzk9d-72">
          <mxGeometry relative="1" as="geometry">
            <mxPoint x="330" y="970.0000000000005" as="targetPoint" />
            <Array as="points">
              <mxPoint x="670" y="710" />
            </Array>
          </mxGeometry>
        </mxCell>
        <mxCell id="laYVWlQpi4HF2ZQRzk9d-78" value="WoodWindInstrument" style="swimlane;fontStyle=0;childLayout=stackLayout;horizontal=1;startSize=26;fillColor=none;horizontalStack=0;resizeParent=1;resizeParentMax=0;resizeLast=0;collapsible=1;marginBottom=0;whiteSpace=wrap;html=1;" vertex="1" parent="WIyWlLk6GJQsqaUBKTNV-1">
          <mxGeometry x="890" y="430" width="140" height="130" as="geometry" />
        </mxCell>
        <mxCell id="laYVWlQpi4HF2ZQRzk9d-79" value="- reedType : String" style="text;strokeColor=none;fillColor=none;align=left;verticalAlign=top;spacingLeft=4;spacingRight=4;overflow=hidden;rotatable=0;points=[[0,0.5],[1,0.5]];portConstraint=eastwest;whiteSpace=wrap;html=1;" vertex="1" parent="laYVWlQpi4HF2ZQRzk9d-78">
          <mxGeometry y="26" width="140" height="26" as="geometry" />
        </mxCell>
        <mxCell id="laYVWlQpi4HF2ZQRzk9d-81" value="- keySystem : String" style="text;strokeColor=none;fillColor=none;align=left;verticalAlign=top;spacingLeft=4;spacingRight=4;overflow=hidden;rotatable=0;points=[[0,0.5],[1,0.5]];portConstraint=eastwest;whiteSpace=wrap;html=1;" vertex="1" parent="laYVWlQpi4HF2ZQRzk9d-78">
          <mxGeometry y="52" width="140" height="26" as="geometry" />
        </mxCell>
        <mxCell id="laYVWlQpi4HF2ZQRzk9d-82" value="- range : String" style="text;strokeColor=none;fillColor=none;align=left;verticalAlign=top;spacingLeft=4;spacingRight=4;overflow=hidden;rotatable=0;points=[[0,0.5],[1,0.5]];portConstraint=eastwest;whiteSpace=wrap;html=1;" vertex="1" parent="laYVWlQpi4HF2ZQRzk9d-78">
          <mxGeometry y="78" width="140" height="26" as="geometry" />
        </mxCell>
        <mxCell id="laYVWlQpi4HF2ZQRzk9d-83" value="- bodyMaterial : String" style="text;strokeColor=none;fillColor=none;align=left;verticalAlign=top;spacingLeft=4;spacingRight=4;overflow=hidden;rotatable=0;points=[[0,0.5],[1,0.5]];portConstraint=eastwest;whiteSpace=wrap;html=1;" vertex="1" parent="laYVWlQpi4HF2ZQRzk9d-78">
          <mxGeometry y="104" width="140" height="26" as="geometry" />
        </mxCell>
        <mxCell id="laYVWlQpi4HF2ZQRzk9d-84" value="Extends" style="endArrow=block;endSize=16;endFill=0;html=1;rounded=0;exitX=0.5;exitY=0;exitDx=0;exitDy=0;entryX=0.626;entryY=1.101;entryDx=0;entryDy=0;entryPerimeter=0;" edge="1" parent="WIyWlLk6GJQsqaUBKTNV-1" source="laYVWlQpi4HF2ZQRzk9d-78" target="laYVWlQpi4HF2ZQRzk9d-10">
          <mxGeometry width="160" relative="1" as="geometry">
            <mxPoint x="740" y="460" as="sourcePoint" />
            <mxPoint x="970" y="210" as="targetPoint" />
            <Array as="points">
              <mxPoint x="960" y="300" />
              <mxPoint x="837" y="300" />
            </Array>
          </mxGeometry>
        </mxCell>
        <mxCell id="laYVWlQpi4HF2ZQRzk9d-85" value="BrassInstrument" style="swimlane;fontStyle=0;childLayout=stackLayout;horizontal=1;startSize=26;fillColor=none;horizontalStack=0;resizeParent=1;resizeParentMax=0;resizeLast=0;collapsible=1;marginBottom=0;whiteSpace=wrap;html=1;" vertex="1" parent="WIyWlLk6GJQsqaUBKTNV-1">
          <mxGeometry x="1070" y="430" width="170" height="130" as="geometry" />
        </mxCell>
        <mxCell id="laYVWlQpi4HF2ZQRzk9d-86" value="- boreSize : Double" style="text;strokeColor=none;fillColor=none;align=left;verticalAlign=top;spacingLeft=4;spacingRight=4;overflow=hidden;rotatable=0;points=[[0,0.5],[1,0.5]];portConstraint=eastwest;whiteSpace=wrap;html=1;" vertex="1" parent="laYVWlQpi4HF2ZQRzk9d-85">
          <mxGeometry y="26" width="170" height="26" as="geometry" />
        </mxCell>
        <mxCell id="laYVWlQpi4HF2ZQRzk9d-87" value="- valveType : String" style="text;strokeColor=none;fillColor=none;align=left;verticalAlign=top;spacingLeft=4;spacingRight=4;overflow=hidden;rotatable=0;points=[[0,0.5],[1,0.5]];portConstraint=eastwest;whiteSpace=wrap;html=1;" vertex="1" parent="laYVWlQpi4HF2ZQRzk9d-85">
          <mxGeometry y="52" width="170" height="26" as="geometry" />
        </mxCell>
        <mxCell id="laYVWlQpi4HF2ZQRzk9d-88" value="- bellDiameter : Double" style="text;strokeColor=none;fillColor=none;align=left;verticalAlign=top;spacingLeft=4;spacingRight=4;overflow=hidden;rotatable=0;points=[[0,0.5],[1,0.5]];portConstraint=eastwest;whiteSpace=wrap;html=1;" vertex="1" parent="laYVWlQpi4HF2ZQRzk9d-85">
          <mxGeometry y="78" width="170" height="26" as="geometry" />
        </mxCell>
        <mxCell id="laYVWlQpi4HF2ZQRzk9d-89" value="- mouthPieceSize : Double" style="text;strokeColor=none;fillColor=none;align=left;verticalAlign=top;spacingLeft=4;spacingRight=4;overflow=hidden;rotatable=0;points=[[0,0.5],[1,0.5]];portConstraint=eastwest;whiteSpace=wrap;html=1;" vertex="1" parent="laYVWlQpi4HF2ZQRzk9d-85">
          <mxGeometry y="104" width="170" height="26" as="geometry" />
        </mxCell>
        <mxCell id="laYVWlQpi4HF2ZQRzk9d-90" value="Extends" style="endArrow=block;endSize=16;endFill=0;html=1;rounded=0;exitX=0.5;exitY=0;exitDx=0;exitDy=0;entryX=0.709;entryY=1.071;entryDx=0;entryDy=0;entryPerimeter=0;" edge="1" parent="WIyWlLk6GJQsqaUBKTNV-1" source="laYVWlQpi4HF2ZQRzk9d-85" target="laYVWlQpi4HF2ZQRzk9d-10">
          <mxGeometry width="160" relative="1" as="geometry">
            <mxPoint x="1350" y="360" as="sourcePoint" />
            <mxPoint x="1510" y="360" as="targetPoint" />
            <Array as="points">
              <mxPoint x="1155" y="280" />
              <mxPoint x="864" y="280" />
            </Array>
          </mxGeometry>
        </mxCell>
        <mxCell id="laYVWlQpi4HF2ZQRzk9d-91" value="PercussionInstrument" style="swimlane;fontStyle=0;childLayout=stackLayout;horizontal=1;startSize=26;fillColor=none;horizontalStack=0;resizeParent=1;resizeParentMax=0;resizeLast=0;collapsible=1;marginBottom=0;whiteSpace=wrap;html=1;" vertex="1" parent="WIyWlLk6GJQsqaUBKTNV-1">
          <mxGeometry x="1270" y="430" width="200" height="120" as="geometry" />
        </mxCell>
        <mxCell id="laYVWlQpi4HF2ZQRzk9d-92" value="- percussionType : PercussionType" style="text;strokeColor=none;fillColor=none;align=left;verticalAlign=top;spacingLeft=4;spacingRight=4;overflow=hidden;rotatable=0;points=[[0,0.5],[1,0.5]];portConstraint=eastwest;whiteSpace=wrap;html=1;" vertex="1" parent="laYVWlQpi4HF2ZQRzk9d-91">
          <mxGeometry y="26" width="200" height="26" as="geometry" />
        </mxCell>
        <mxCell id="laYVWlQpi4HF2ZQRzk9d-93" value="- material : String" style="text;strokeColor=none;fillColor=none;align=left;verticalAlign=top;spacingLeft=4;spacingRight=4;overflow=hidden;rotatable=0;points=[[0,0.5],[1,0.5]];portConstraint=eastwest;whiteSpace=wrap;html=1;" vertex="1" parent="laYVWlQpi4HF2ZQRzk9d-91">
          <mxGeometry y="52" width="200" height="26" as="geometry" />
        </mxCell>
        <mxCell id="laYVWlQpi4HF2ZQRzk9d-94" value="- drumheadMaterial : String" style="text;strokeColor=none;fillColor=none;align=left;verticalAlign=top;spacingLeft=4;spacingRight=4;overflow=hidden;rotatable=0;points=[[0,0.5],[1,0.5]];portConstraint=eastwest;whiteSpace=wrap;html=1;" vertex="1" parent="laYVWlQpi4HF2ZQRzk9d-91">
          <mxGeometry y="78" width="200" height="42" as="geometry" />
        </mxCell>
        <mxCell id="laYVWlQpi4HF2ZQRzk9d-96" value="Extends" style="endArrow=block;endSize=16;endFill=0;html=1;rounded=0;entryX=0.821;entryY=1.095;entryDx=0;entryDy=0;entryPerimeter=0;exitX=0.5;exitY=0;exitDx=0;exitDy=0;" edge="1" parent="WIyWlLk6GJQsqaUBKTNV-1" source="laYVWlQpi4HF2ZQRzk9d-91" target="laYVWlQpi4HF2ZQRzk9d-10">
          <mxGeometry width="160" relative="1" as="geometry">
            <mxPoint x="1300" y="360" as="sourcePoint" />
            <mxPoint x="1460" y="360" as="targetPoint" />
            <Array as="points">
              <mxPoint x="1370" y="250" />
              <mxPoint x="901" y="250" />
            </Array>
          </mxGeometry>
        </mxCell>
        <mxCell id="laYVWlQpi4HF2ZQRzk9d-97" value="&amp;lt;&amp;lt;Enum&amp;gt;&amp;gt;&lt;div&gt;PercussionType&lt;/div&gt;" style="swimlane;fontStyle=0;childLayout=stackLayout;horizontal=1;startSize=44;fillColor=none;horizontalStack=0;resizeParent=1;resizeParentMax=0;resizeLast=0;collapsible=1;marginBottom=0;whiteSpace=wrap;html=1;" vertex="1" parent="WIyWlLk6GJQsqaUBKTNV-1">
          <mxGeometry x="1270" y="616" width="200" height="122" as="geometry" />
        </mxCell>
        <mxCell id="laYVWlQpi4HF2ZQRzk9d-98" value="IDIOPHONE" style="text;strokeColor=none;fillColor=none;align=left;verticalAlign=top;spacingLeft=4;spacingRight=4;overflow=hidden;rotatable=0;points=[[0,0.5],[1,0.5]];portConstraint=eastwest;whiteSpace=wrap;html=1;" vertex="1" parent="laYVWlQpi4HF2ZQRzk9d-97">
          <mxGeometry y="44" width="200" height="26" as="geometry" />
        </mxCell>
        <mxCell id="laYVWlQpi4HF2ZQRzk9d-100" value="MEMPRANOPHONE" style="text;strokeColor=none;fillColor=none;align=left;verticalAlign=top;spacingLeft=4;spacingRight=4;overflow=hidden;rotatable=0;points=[[0,0.5],[1,0.5]];portConstraint=eastwest;whiteSpace=wrap;html=1;" vertex="1" parent="laYVWlQpi4HF2ZQRzk9d-97">
          <mxGeometry y="70" width="200" height="26" as="geometry" />
        </mxCell>
        <mxCell id="laYVWlQpi4HF2ZQRzk9d-103" value="ELECTROPHONE" style="text;strokeColor=none;fillColor=none;align=left;verticalAlign=top;spacingLeft=4;spacingRight=4;overflow=hidden;rotatable=0;points=[[0,0.5],[1,0.5]];portConstraint=eastwest;whiteSpace=wrap;html=1;" vertex="1" parent="laYVWlQpi4HF2ZQRzk9d-97">
          <mxGeometry y="96" width="200" height="26" as="geometry" />
        </mxCell>
        <mxCell id="laYVWlQpi4HF2ZQRzk9d-104" style="edgeStyle=orthogonalEdgeStyle;rounded=0;orthogonalLoop=1;jettySize=auto;html=1;entryX=0;entryY=0.25;entryDx=0;entryDy=0;" edge="1" parent="WIyWlLk6GJQsqaUBKTNV-1" source="laYVWlQpi4HF2ZQRzk9d-92" target="laYVWlQpi4HF2ZQRzk9d-97">
          <mxGeometry relative="1" as="geometry" />
        </mxCell>
      </root>
    </mxGraphModel>
  </diagram>
</mxfile>
